<svg version="1.1" id="Layer_1" xmlns="http://www.w3.org/2000/svg" xmlns:xlink="http://www.w3.org/1999/xlink" x="0px" y="0px"
	 width="100%" viewBox="0 0 662 470" enable-background="new 0 0 662 470" xml:space="preserve">
<path fill="#FEFFFF" opacity="1.000000" stroke="none" 
	d="
M663.000000,215.000000 
	C663.000000,300.299103 663.000000,385.598236 663.000000,470.948669 
	C442.456055,470.948669 221.912094,470.948669 1.000000,470.948669 
	C1.000000,417.977936 1.000000,364.954987 1.324769,311.631409 
	C7.664593,330.539612 22.976652,336.136841 43.174782,326.142059 
	C41.267994,337.575592 36.618015,346.352661 23.950233,348.947876 
	C24.239416,349.331604 24.528601,349.715332 24.817785,350.099060 
	C39.829777,350.099060 54.841770,350.099060 69.997147,350.099060 
	C65.481949,347.025970 60.566101,344.931030 57.534653,341.274017 
	C54.341541,337.421997 52.948914,332.077484 50.769623,327.385071 
	C72.040039,334.490112 86.177040,330.188324 91.798073,314.724121 
	C97.156334,299.982880 89.474167,286.546600 72.141441,280.344238 
	C73.434708,259.937500 63.625835,247.098068 46.901833,247.467041 
	C39.579231,247.628586 33.334385,250.388596 28.362040,255.883423 
	C21.913519,263.009583 20.745638,271.410339 22.660002,280.575897 
	C14.324672,282.420197 8.076872,286.696747 4.104703,294.020020 
	C3.034030,295.993927 2.032998,298.005646 1.000001,300.000000 
	C1.000000,200.372559 1.000000,100.745132 1.000000,1.060763 
	C221.666672,1.060763 442.333344,1.060763 663.000000,1.060763 
	C663.000000,46.103661 663.000000,91.085800 662.598083,136.534973 
	C661.392578,137.027359 660.589050,137.052704 659.535156,136.852921 
	C657.266541,131.676392 653.992004,127.929207 649.044189,125.693138 
	C637.677063,120.556000 624.919006,122.566010 615.519653,130.980011 
	C613.808716,131.701859 612.485535,132.413879 611.162415,133.125900 
	C611.749512,134.082916 612.336670,135.039932 612.903198,136.382568 
	C607.517822,151.718033 611.042358,164.546158 622.105103,175.989471 
	C622.363281,180.936432 623.017944,181.443436 626.468872,179.752899 
	C627.880676,181.121750 629.012024,182.342133 630.106323,183.974182 
	C630.723328,188.967346 633.321960,191.540390 638.241699,192.239075 
	C639.567383,196.756927 641.003479,201.006500 641.500061,205.363159 
	C641.848694,208.421768 641.389954,212.037201 636.818298,212.075317 
	C632.409424,212.112076 631.833008,208.857010 631.734985,205.560287 
	C631.593506,200.800735 631.698853,196.033859 631.698853,191.338928 
	C624.217712,191.338928 617.496948,191.338928 610.071472,191.338928 
	C610.494690,198.476257 610.504333,205.288971 611.408997,211.980682 
	C612.271545,218.360947 614.933899,224.111557 620.690125,227.813629 
	C635.893188,237.591354 654.696960,231.638077 661.501221,215.001328 
	C662.200623,215.000534 662.600342,215.000259 663.000000,215.000000 
M348.192017,125.138931 
	C348.404633,126.425552 348.617279,127.712173 348.967285,129.911530 
	C348.921448,133.608017 348.875610,137.304520 348.194214,141.119400 
	C348.427277,142.079208 348.660339,143.039017 349.494507,144.595566 
	C353.428589,144.595566 357.362671,144.595566 361.867371,144.595566 
	C361.867371,173.818222 361.867371,202.205948 361.867371,230.667114 
	C369.192810,230.667114 375.929626,230.667114 383.026215,230.667114 
	C383.026215,228.394775 383.022491,226.424759 383.026794,224.454773 
	C383.083984,198.294632 383.142212,172.134476 383.560364,145.747131 
	C383.778015,145.550842 383.923401,145.310776 384.902283,144.833008 
	C388.472595,144.833008 392.042938,144.833008 395.557098,144.833008 
	C395.557098,137.459305 395.557098,131.027222 395.557098,124.441170 
	C394.684723,124.292679 394.057739,124.093697 393.430420,124.092735 
	C379.449677,124.071243 365.468842,124.054726 351.488281,124.107811 
	C350.608521,124.111153 349.730896,124.690186 348.192017,125.138931 
M378.886841,261.124603 
	C385.168243,261.124603 391.449677,261.124603 397.799103,261.124603 
	C397.799103,253.875778 397.799103,247.201508 397.799103,240.542114 
	C383.612152,240.542114 369.869354,240.542114 355.929626,240.542114 
	C355.929626,276.092621 355.929626,311.313995 355.929626,346.718658 
	C363.050690,346.718658 369.913635,346.718658 377.225311,346.718658 
	C377.225311,330.894897 377.225311,315.432587 377.572662,299.746490 
	C377.782379,299.554718 377.922791,299.321289 378.911835,298.835968 
	C384.818665,298.835968 390.725494,298.835968 396.709656,298.835968 
	C396.709656,291.567078 396.709656,284.928070 396.709656,277.847687 
	C390.185059,277.847687 384.083618,277.847687 377.814789,277.503296 
	C377.665741,277.286072 377.469299,277.127594 377.076782,276.102295 
	C377.143768,271.390472 377.210724,266.678680 377.562622,261.811005 
	C377.741180,261.678650 377.874054,261.510223 378.886841,261.124603 
M512.464844,230.665680 
	C526.892761,230.665680 541.320679,230.665680 555.807068,230.665680 
	C555.807068,223.725372 555.807068,217.033798 555.807068,209.835327 
	C548.333862,209.835327 541.264526,209.835327 534.326355,209.835327 
	C534.326355,201.564621 534.326355,193.818130 534.326355,185.688812 
	C540.942017,185.688812 547.217102,185.688812 553.762146,185.688812 
	C553.762146,178.901382 553.762146,172.508865 553.762146,165.541595 
	C547.106384,165.541595 540.697083,165.541595 534.303284,165.541595 
	C534.303284,158.382187 534.303284,151.801941 534.303284,144.660919 
	C541.341858,144.660919 548.073303,144.660919 554.617188,144.660919 
	C554.617188,137.506638 554.617188,130.927902 554.617188,124.379028 
	C540.341431,124.379028 526.434692,124.379028 512.099731,124.379028 
	C512.099731,126.644928 512.103210,128.611374 512.099243,130.577820 
	C512.034302,162.718964 511.968445,194.860123 511.254974,227.109955 
	C511.475555,228.072906 511.696136,229.035843 512.464844,230.665680 
M542.888611,418.082123 
	C548.934570,418.082123 554.980591,418.082123 560.947998,418.082123 
	C560.947998,410.961243 560.947998,404.716888 560.947998,397.724426 
	C554.460632,397.724426 548.213989,397.724426 541.813538,397.440094 
	C541.682861,397.261658 541.516113,397.128326 541.132812,396.114349 
	C541.132812,389.862213 541.132812,383.610107 541.132812,376.958282 
	C548.487793,376.958282 555.084839,376.958282 561.773071,376.958282 
	C561.773071,369.971649 561.773071,363.417175 561.773071,356.755829 
	C547.539795,356.755829 533.633545,356.755829 519.601807,356.755829 
	C519.601807,392.322510 519.601807,427.556793 519.601807,462.907410 
	C534.330017,462.907410 548.733765,462.907410 563.367188,462.907410 
	C563.367188,456.159760 563.367188,449.735321 563.367188,442.598816 
	C555.883911,442.598816 548.646973,442.598816 541.319397,442.598816 
	C541.319397,434.244904 541.319397,426.601990 541.593506,418.793671 
	C541.763245,418.655579 541.887634,418.484467 542.888611,418.082123 
M460.128418,226.168091 
	C458.616425,228.152390 457.831451,229.983231 462.057617,230.970993 
	C476.304657,230.970993 490.551727,230.970993 504.779602,230.970993 
	C504.779602,223.681580 504.779602,217.096558 504.779602,210.010376 
	C497.431274,210.010376 490.357269,210.010376 483.115295,210.010376 
	C483.115295,201.772232 483.115295,194.041733 483.115295,185.713318 
	C489.762390,185.713318 496.157104,185.713318 502.564270,185.713318 
	C502.564270,178.718735 502.564270,172.329361 502.564270,165.460907 
	C495.915375,165.460907 489.633026,165.460907 483.157928,165.460907 
	C483.157928,158.413162 483.157928,151.858307 483.157928,144.682877 
	C490.172180,144.682877 496.888428,144.682877 503.465332,144.682877 
	C503.465332,137.482895 503.465332,130.911911 503.465332,124.061897 
	C489.113403,124.061897 475.142334,124.061897 460.433075,124.133461 
	C458.415405,125.929886 458.011200,127.595200 460.965851,129.927109 
	C460.920074,161.951843 460.874329,193.976562 460.128418,226.168091 
M327.227844,166.082245 
	C326.171967,164.988876 325.116089,163.895508 324.138336,162.039902 
	C324.425568,159.710983 324.712799,157.382065 325.924103,154.884262 
	C332.157593,154.884262 338.391113,154.884262 345.355591,154.884262 
	C344.524750,149.517746 344.099884,145.059631 343.110504,140.730530 
	C340.872772,130.939529 334.731384,124.717384 324.665863,123.880554 
	C318.523193,123.369865 312.236298,124.593803 305.718384,124.435585 
	C301.371948,122.230003 301.240387,125.233551 300.776855,128.787369 
	C289.939026,140.768005 290.282440,159.392532 301.596802,171.993240 
	C303.700134,174.335663 305.886536,176.603500 308.029022,179.672913 
	C309.050720,180.437057 310.072388,181.201202 311.702026,182.229980 
	C313.686218,184.212234 315.642883,186.222977 317.659912,188.171249 
	C323.076630,193.403351 324.873535,199.918732 323.909698,207.141647 
	C323.702515,208.694351 321.731873,210.011749 319.920746,210.952194 
	C318.306244,210.301407 316.691742,209.650635 314.643616,208.280396 
	C314.310272,202.563950 313.976929,196.847504 313.651886,191.272888 
	C306.628571,191.272888 300.031281,191.272888 293.175018,191.272888 
	C292.855316,203.012024 292.127411,214.498062 299.061462,225.449493 
	C300.381104,229.755951 302.887970,231.219727 306.945312,229.774887 
	C309.517426,230.390594 312.061035,231.191940 314.666260,231.591995 
	C331.984222,234.251343 342.856812,226.230423 344.829773,209.064697 
	C346.016296,198.741486 345.695679,188.528137 339.945160,178.481567 
	C338.787262,177.373108 337.629395,176.264648 335.965454,174.817535 
	C334.886810,173.587845 333.808197,172.358154 333.351013,170.697632 
	C332.905975,169.023331 332.796997,167.104980 331.847290,165.797150 
	C331.477600,165.287994 329.212860,166.154938 327.227844,166.082245 
M321.059509,408.999329 
	C320.080353,408.999390 319.101227,408.999451 317.906921,408.168121 
	C316.009186,391.009979 314.111420,373.851868 312.205658,356.621246 
	C305.240814,356.621246 298.815399,356.621246 291.789001,356.621246 
	C296.196533,392.335083 300.561523,427.704010 304.945953,463.230713 
	C313.866394,463.230713 322.019928,463.037872 330.157104,463.318817 
	C333.776245,463.443787 334.550568,461.933105 334.928711,458.764252 
	C338.102936,432.164093 341.447998,405.584320 344.706116,378.994080 
	C345.608032,371.633514 346.391022,364.258392 347.257355,356.636658 
	C340.141724,356.636658 333.735199,356.636658 327.355774,356.636658 
	C327.141510,357.382996 326.929626,357.848328 326.880951,358.330139 
	C325.175781,375.218536 323.485931,392.108490 321.059509,408.999329 
M322.024200,68.651230 
	C323.077209,70.079170 324.130219,71.507118 325.695038,73.601265 
	C325.745941,79.067833 325.796844,84.534393 325.248657,90.098259 
	C325.279388,90.778793 325.310089,91.459335 325.253418,92.768852 
	C324.629669,93.569107 324.005890,94.369370 322.658112,94.868279 
	C320.465179,94.245476 318.272247,93.622681 315.599182,92.302979 
	C315.186737,86.593658 314.774323,80.884346 314.358734,75.131363 
	C307.194336,75.131363 300.294525,75.131363 293.072784,75.131363 
	C292.731903,86.444801 291.821381,97.538643 298.072418,108.349876 
	C298.543762,111.794067 298.752563,111.955109 301.804138,110.960373 
	C310.778839,117.151100 320.676605,116.503250 331.361603,115.129761 
	C332.200439,114.635452 333.039276,114.141136 334.353119,113.192726 
	C341.391876,109.916344 345.766876,104.140839 346.852936,96.800690 
	C348.056152,88.668587 348.473969,80.283218 347.958160,72.088432 
	C347.676697,67.616898 344.754364,63.311588 343.099579,58.188564 
	C343.406677,56.479847 343.713806,54.771130 344.251862,52.447403 
	C345.188812,50.964664 346.125763,49.481926 347.668427,47.916790 
	C347.688110,47.240112 347.707794,46.563431 347.762268,45.029720 
	C347.826660,39.558193 348.408264,34.032978 347.847015,28.626394 
	C346.703308,17.608482 339.619843,9.949254 328.927551,8.347604 
	C319.239258,6.896347 309.613800,7.234786 300.807129,12.794667 
	C300.251434,13.665801 299.695709,14.536935 298.923767,16.044449 
	C293.894409,23.145044 292.818298,31.090578 293.443390,39.534248 
	C301.074585,39.534248 308.231476,39.534248 315.042297,39.534248 
	C315.791290,36.054516 316.442871,33.027416 317.888916,30.000254 
	C320.557983,30.666996 323.227020,31.333740 326.176056,32.871376 
	C327.169708,42.710537 325.476135,45.038029 315.374298,47.620720 
	C315.374298,53.654377 315.374298,59.706234 315.374298,65.214828 
	C317.883728,66.206512 319.969086,67.030602 322.024200,68.651230 
M382.997711,447.843658 
	C383.467865,452.778717 383.937988,457.713776 384.428802,462.865906 
	C391.258911,462.865906 397.788544,462.865906 404.358246,462.865906 
	C404.429626,462.031158 404.545349,461.545105 404.500946,461.074188 
	C401.595642,430.264862 398.686859,399.455841 395.755524,368.649017 
	C394.592590,356.427002 394.568634,356.429291 381.688202,356.429291 
	C373.927155,356.429291 366.166107,356.429291 358.296906,356.429291 
	C354.825653,392.353210 351.425629,427.539642 348.019318,462.791260 
	C355.325378,462.791260 362.020813,462.791260 368.658081,462.791260 
	C369.192169,457.229767 369.684326,452.104797 370.513306,446.808899 
	C370.724792,446.658173 370.878174,446.461975 371.802979,446.074005 
	C373.202301,446.121765 374.601654,446.169525 376.121338,446.837372 
	C377.080566,446.630310 378.039795,446.423218 379.749756,446.072479 
	C380.508789,446.123962 381.267853,446.175476 382.208282,446.549530 
	C382.365021,446.749573 382.563110,446.892181 382.997711,447.843658 
M466.043457,458.614807 
	C465.725128,463.322571 469.129211,461.731720 472.259308,461.913300 
	C481.090515,465.287018 489.916168,464.911865 499.393768,462.145477 
	C502.182831,463.558929 501.933014,461.563263 502.274292,459.289581 
	C509.104340,453.312439 511.033020,445.368134 511.059906,436.785583 
	C511.139679,411.303253 511.115387,385.820618 511.113678,360.338104 
	C511.113586,359.209137 510.935486,358.080170 510.819397,356.703247 
	C504.046722,356.703247 497.470093,356.703247 490.314026,356.703247 
	C490.314026,358.753326 490.314026,360.531921 490.314026,362.310547 
	C490.313934,385.294861 490.370178,408.279449 490.254974,431.263184 
	C490.237030,434.844116 489.437042,438.421173 488.242920,442.000580 
	C486.810577,442.714966 485.378235,443.429382 483.176178,444.067291 
	C482.120605,440.590637 480.190155,437.123932 480.150574,433.635773 
	C479.880341,409.820190 480.007385,386.000092 480.006348,362.181458 
	C480.006287,360.412750 480.006378,358.644073 480.006378,356.711334 
	C472.819885,356.711334 466.232635,356.711334 459.509399,356.711334 
	C459.356689,357.594482 459.153564,358.221405 459.153534,358.848358 
	C459.152100,384.998718 459.089203,411.149475 459.233643,437.299133 
	C459.274902,444.770050 461.374634,451.747192 466.043457,458.614807 
M299.784821,340.186279 
	C298.918488,343.765808 301.594696,342.700317 303.959442,343.111694 
	C318.303864,352.238525 334.284363,349.297241 344.202667,335.874451 
	C344.437988,334.903992 344.673279,333.933563 344.956177,332.165924 
	C345.318542,330.720642 345.983215,329.278442 345.998047,327.829620 
	C346.228546,305.286682 347.203369,282.706696 346.220764,260.213257 
	C345.658203,247.334961 337.558075,241.072662 324.655945,239.509018 
	C316.995148,238.580582 309.815155,240.080124 302.401855,244.041321 
	C301.611908,245.056458 300.821960,246.071594 299.800476,247.737717 
	C295.368500,253.619492 294.231445,260.455444 294.208160,267.558350 
	C294.156281,283.388092 293.983307,299.222198 294.296478,315.045929 
	C294.413818,320.974457 295.743988,326.878998 295.907501,333.106110 
	C296.385010,333.697876 296.862518,334.289642 297.802185,335.329041 
	C298.667175,336.825775 299.532135,338.322479 299.784821,340.186279 
M446.000916,175.315796 
	C446.001465,174.953537 446.002045,174.591263 446.542603,173.793335 
	C448.754333,170.036392 452.535828,166.407715 452.855438,162.496140 
	C453.550446,153.991501 453.108276,145.255753 451.938995,136.778885 
	C450.928528,129.453308 445.572876,124.777176 438.173126,124.444061 
	C426.251007,123.907379 414.287079,124.299919 402.141388,124.299919 
	C402.141388,159.920975 402.141388,195.269775 402.141388,230.698746 
	C409.250610,230.698746 416.001709,230.698746 423.401550,230.698746 
	C423.401550,214.417801 423.401550,198.402817 423.401550,182.360184 
	C430.376648,182.838028 431.140472,183.473160 431.239716,189.303680 
	C431.355957,196.131851 431.281708,202.963287 431.285095,209.793320 
	C431.288513,216.737228 431.285858,223.681122 431.285858,230.709076 
	C438.527924,230.709076 445.116547,230.709076 452.229431,230.709076 
	C452.229431,215.846283 452.296997,201.241287 452.190002,186.637558 
	C452.156097,182.008728 449.989014,178.346970 446.000916,175.315796 
M128.796249,262.418121 
	C127.484901,266.323212 125.613510,270.138245 124.968208,274.150482 
	C123.104156,285.740356 126.953339,296.153442 132.805939,305.889771 
	C143.469894,323.630280 158.562103,337.092743 175.213608,348.952179 
	C176.196793,349.652374 178.474457,349.779449 179.407455,349.121185 
	C196.814743,336.839569 212.425552,322.749451 223.152618,303.998871 
	C228.469437,294.705261 231.342621,284.789276 230.041611,273.923889 
	C228.336517,259.683990 216.880081,248.264465 203.087463,247.567596 
	C191.906052,247.002655 183.744431,252.484253 177.555435,261.542786 
	C176.974579,260.911011 176.494675,260.456329 176.091965,259.941315 
	C162.479767,242.532013 141.633331,243.330307 128.796249,262.418121 
M224.522903,178.885345 
	C222.132401,172.405411 220.725815,165.316116 217.162415,159.562576 
	C207.413635,143.821854 192.877625,132.938583 177.613876,123.179855 
	C165.240128,130.022842 149.107101,143.372299 141.263229,154.390137 
	C137.368515,159.860809 133.850540,165.944031 131.747086,172.276611 
	C126.802078,187.163773 134.844421,201.745590 149.441666,205.490402 
	C157.932297,207.668610 165.758255,205.635178 173.439316,200.720230 
	C171.823624,206.229599 170.440155,211.977798 167.091385,216.147720 
	C163.878357,220.148636 158.627396,222.512955 154.478668,225.450165 
	C169.745422,225.450165 185.285355,225.450165 200.825272,225.450165 
	C188.214706,221.752640 183.481735,212.636078 181.735504,200.713913 
	C206.145218,211.442276 223.928482,202.587494 224.522903,178.885345 
M256.108917,298.500000 
	C256.109985,352.307892 256.110535,406.115814 256.114990,459.923706 
	C256.115112,461.422272 255.961914,462.955688 256.221466,464.412018 
	C256.734955,467.293243 257.803131,470.730347 261.232239,469.899506 
	C263.180054,469.427582 264.530365,466.186890 265.956421,464.063263 
	C266.344666,463.485138 266.039703,462.436218 266.039734,461.603394 
	C266.040894,311.174133 266.043365,160.744888 266.011749,10.315646 
	C266.011383,8.519756 266.018585,6.477377 265.205078,5.000010 
	C264.447235,3.623677 262.611938,2.056795 261.224182,2.031337 
	C259.833344,2.005822 257.695923,3.497292 257.160828,4.834217 
	C256.272949,7.052527 256.147308,9.679305 256.146179,12.134232 
	C256.102234,107.256142 256.108948,202.378067 256.108917,298.500000 
M80.979790,185.484604 
	C84.517921,181.341263 88.056053,177.197937 91.733559,172.891388 
	C76.812622,155.604828 62.181683,138.654221 47.254723,121.360672 
	C32.210232,138.804947 17.487453,155.876205 2.743711,172.971756 
	C17.753222,190.356171 32.409267,207.331192 47.049793,224.288239 
	C47.674408,223.811325 47.976498,223.652115 48.184574,223.411560 
	C58.964123,210.949585 69.735687,198.480713 80.979790,185.484604 
M577.616821,230.973389 
	C583.032410,230.973389 588.447937,230.973389 594.295166,230.973389 
	C594.295166,201.781586 594.295166,173.388733 594.295166,144.478561 
	C598.671143,144.478561 602.579346,144.478561 606.341675,144.478561 
	C606.341675,137.393173 606.341675,130.841171 606.341675,124.432541 
	C590.673645,124.432541 575.439453,124.432541 560.345581,124.432541 
	C560.345581,131.369888 560.345581,137.931244 560.345581,144.914398 
	C564.504883,144.914398 568.273010,144.914398 572.685059,144.914398 
	C572.685059,147.476898 572.684937,149.604355 572.685059,151.731827 
	C572.686768,176.544250 572.711182,201.356735 572.659302,226.169052 
	C572.653320,229.048248 572.508850,231.692581 577.616821,230.973389 
M432.643860,363.633453 
	C432.643860,361.369751 432.643860,359.106079 432.643860,356.843689 
	C425.052826,356.843689 418.179901,356.843689 411.461029,356.843689 
	C411.461029,392.507355 411.461029,427.740540 411.461029,462.912781 
	C425.959351,462.912781 440.052368,462.912781 454.267700,462.912781 
	C454.267700,456.850250 454.267700,451.117920 454.267700,444.938293 
	C446.959076,444.938293 440.016357,444.938293 432.643463,444.938293 
	C432.643463,417.856079 432.643463,391.226501 432.643860,363.633453 
z"/>
<path fill="#022140" opacity="1.000000" stroke="none" 
	d="
M1.000001,300.458069 
	C2.032998,298.005646 3.034030,295.993927 4.104703,294.020020 
	C8.076872,286.696747 14.324672,282.420197 22.660002,280.575897 
	C20.745638,271.410339 21.913519,263.009583 28.362040,255.883423 
	C33.334385,250.388596 39.579231,247.628586 46.901833,247.467041 
	C63.625835,247.098068 73.434708,259.937500 72.141441,280.344238 
	C89.474167,286.546600 97.156334,299.982880 91.798073,314.724121 
	C86.177040,330.188324 72.040039,334.490112 50.769623,327.385071 
	C52.948914,332.077484 54.341541,337.421997 57.534653,341.274017 
	C60.566101,344.931030 65.481949,347.025970 69.997147,350.099060 
	C54.841770,350.099060 39.829777,350.099060 24.817785,350.099060 
	C24.528601,349.715332 24.239416,349.331604 23.950233,348.947876 
	C36.618015,346.352661 41.267994,337.575592 43.174782,326.142059 
	C22.976652,336.136841 7.664593,330.539612 1.324769,311.165375 
	C1.000000,307.638702 1.000000,304.277435 1.000001,300.458069 
z"/>
<path fill="#53A163" opacity="1.000000" stroke="none" 
	d="
M615.907410,130.970215 
	C624.919006,122.566010 637.677063,120.556000 649.044189,125.693138 
	C653.992004,127.929207 657.266541,131.676392 659.576599,137.251282 
	C660.799072,143.318817 661.729858,148.762848 662.712891,154.512451 
	C654.620361,154.512451 647.749573,154.512451 640.532166,154.512451 
	C640.393005,151.745834 640.762817,149.118271 639.980591,146.896332 
	C639.416626,145.294586 637.195007,143.076126 635.934753,143.210785 
	C634.192444,143.396942 631.319031,145.531723 631.313782,146.841446 
	C631.302795,149.605240 632.264221,152.785828 633.877136,155.045654 
	C636.258301,158.381866 639.456421,161.169617 642.480042,164.006088 
	C651.302124,172.282150 660.145569,180.512375 663.000000,193.000000 
	C663.000000,198.354935 663.000000,203.709854 662.674927,209.664673 
	C661.967041,211.843658 661.584290,213.422760 661.201477,215.001862 
	C654.696960,231.638077 635.893188,237.591354 620.690125,227.813629 
	C614.933899,224.111557 612.271545,218.360947 611.408997,211.980682 
	C610.504333,205.288971 610.494690,198.476257 610.071472,191.338928 
	C617.496948,191.338928 624.217712,191.338928 631.698853,191.338928 
	C631.698853,196.033859 631.593506,200.800735 631.734985,205.560287 
	C631.833008,208.857010 632.409424,212.112076 636.818298,212.075317 
	C641.389954,212.037201 641.848694,208.421768 641.500061,205.363159 
	C641.003479,201.006500 639.567383,196.756927 638.164917,191.912262 
	C635.245972,188.762787 632.694702,186.162659 630.143433,183.562531 
	C629.012024,182.342133 627.880676,181.121750 626.325073,179.474213 
	C624.648193,177.886703 623.395569,176.726364 622.142944,175.566010 
	C611.042358,164.546158 607.517822,151.718033 613.115112,136.131561 
	C614.200806,133.986694 615.054077,132.478439 615.907410,130.970215 
z"/>
<path fill="#FEFEFE" opacity="1.000000" stroke="none" 
	d="
M663.000000,192.531342 
	C660.145569,180.512375 651.302124,172.282150 642.480042,164.006088 
	C639.456421,161.169617 636.258301,158.381866 633.877136,155.045654 
	C632.264221,152.785828 631.302795,149.605240 631.313782,146.841446 
	C631.319031,145.531723 634.192444,143.396942 635.934753,143.210785 
	C637.195007,143.076126 639.416626,145.294586 639.980591,146.896332 
	C640.762817,149.118271 640.393005,151.745834 640.532166,154.512451 
	C647.749573,154.512451 654.620361,154.512451 662.712891,154.512451 
	C661.729858,148.762848 660.799072,143.318817 659.826904,137.476410 
	C660.589050,137.052704 661.392578,137.027359 662.598083,137.001007 
	C663.000000,155.354233 663.000000,173.708450 663.000000,192.531342 
z"/>
<path fill="#FEFEFE" opacity="1.000000" stroke="none" 
	d="
M661.501221,215.001328 
	C661.584290,213.422760 661.967041,211.843658 662.674927,210.132278 
	C663.000000,211.388885 663.000000,212.777786 663.000000,214.583328 
	C662.600342,215.000259 662.200623,215.000534 661.501221,215.001328 
z"/>
<path fill="#01203F" opacity="1.000000" stroke="none" 
	d="
M128.948837,262.082275 
	C141.633331,243.330307 162.479767,242.532013 176.091965,259.941315 
	C176.494675,260.456329 176.974579,260.911011 177.555435,261.542786 
	C183.744431,252.484253 191.906052,247.002655 203.087463,247.567596 
	C216.880081,248.264465 228.336517,259.683990 230.041611,273.923889 
	C231.342621,284.789276 228.469437,294.705261 223.152618,303.998871 
	C212.425552,322.749451 196.814743,336.839569 179.407455,349.121185 
	C178.474457,349.779449 176.196793,349.652374 175.213608,348.952179 
	C158.562103,337.092743 143.469894,323.630280 132.805939,305.889771 
	C126.953339,296.153442 123.104156,285.740356 124.968208,274.150482 
	C125.613510,270.138245 127.484901,266.323212 128.948837,262.082275 
z"/>
<path fill="#02203F" opacity="1.000000" stroke="none" 
	d="
M224.562042,179.305267 
	C223.928482,202.587494 206.145218,211.442276 181.735504,200.713913 
	C183.481735,212.636078 188.214706,221.752640 200.825272,225.450165 
	C185.285355,225.450165 169.745422,225.450165 154.478668,225.450165 
	C158.627396,222.512955 163.878357,220.148636 167.091385,216.147720 
	C170.440155,211.977798 171.823624,206.229599 173.439316,200.720230 
	C165.758255,205.635178 157.932297,207.668610 149.441666,205.490402 
	C134.844421,201.745590 126.802078,187.163773 131.747086,172.276611 
	C133.850540,165.944031 137.368515,159.860809 141.263229,154.390137 
	C149.107101,143.372299 165.240128,130.022842 177.613876,123.179855 
	C192.877625,132.938583 207.413635,143.821854 217.162415,159.562576 
	C220.725815,165.316116 222.132401,172.405411 224.562042,179.305267 
z"/>
<path fill="#52A162" opacity="1.000000" stroke="none" 
	d="
M446.000763,175.859299 
	C449.989014,178.346970 452.156097,182.008728 452.190002,186.637558 
	C452.296997,201.241287 452.229431,215.846283 452.229431,230.709076 
	C445.116547,230.709076 438.527924,230.709076 431.285858,230.709076 
	C431.285858,223.681122 431.288513,216.737228 431.285095,209.793320 
	C431.281708,202.963287 431.355957,196.131851 431.239716,189.303680 
	C431.140472,183.473160 430.376648,182.838028 423.401550,182.360184 
	C423.401550,198.402817 423.401550,214.417801 423.401550,230.698746 
	C416.001709,230.698746 409.250610,230.698746 402.141388,230.698746 
	C402.141388,195.269775 402.141388,159.920975 402.141388,124.299919 
	C414.287079,124.299919 426.251007,123.907379 438.173126,124.444061 
	C445.572876,124.777176 450.928528,129.453308 451.938995,136.778885 
	C453.108276,145.255753 453.550446,153.991501 452.855438,162.496140 
	C452.535828,166.407715 448.754333,170.036392 445.975525,174.071701 
	C445.605865,174.853149 445.803314,175.356216 446.000763,175.859299 
M423.289581,153.511505 
	C423.289581,156.776215 423.289581,160.040924 423.289581,163.194656 
	C430.443604,164.407043 432.466400,162.957993 432.947357,156.658447 
	C433.085419,154.850067 433.049957,153.022446 432.996765,151.206497 
	C432.789703,144.137192 430.845215,142.790695 423.289917,144.771332 
	C423.289917,147.295914 423.289917,149.919022 423.289581,153.511505 
z"/>
<path fill="#54A264" opacity="1.000000" stroke="none" 
	d="
M256.108948,298.000000 
	C256.108948,202.378067 256.102234,107.256142 256.146179,12.134232 
	C256.147308,9.679305 256.272949,7.052527 257.160828,4.834217 
	C257.695923,3.497292 259.833344,2.005822 261.224182,2.031337 
	C262.611938,2.056795 264.447235,3.623677 265.205078,5.000010 
	C266.018585,6.477377 266.011383,8.519756 266.011749,10.315646 
	C266.043365,160.744888 266.040894,311.174133 266.039734,461.603394 
	C266.039703,462.436218 266.344666,463.485138 265.956421,464.063263 
	C264.530365,466.186890 263.180054,469.427582 261.232239,469.899506 
	C257.803131,470.730347 256.734955,467.293243 256.221466,464.412018 
	C255.961914,462.955688 256.115112,461.422272 256.114990,459.923706 
	C256.110535,406.115814 256.109985,352.307892 256.108948,298.000000 
z"/>
<path fill="#022140" opacity="1.000000" stroke="none" 
	d="
M80.743942,185.748596 
	C69.735687,198.480713 58.964123,210.949585 48.184574,223.411560 
	C47.976498,223.652115 47.674408,223.811325 47.049793,224.288239 
	C32.409267,207.331192 17.753222,190.356171 2.743711,172.971756 
	C17.487453,155.876205 32.210232,138.804947 47.254723,121.360672 
	C62.181683,138.654221 76.812622,155.604828 91.733559,172.891388 
	C88.056053,177.197937 84.517921,181.341263 80.743942,185.748596 
z"/>
<path fill="#53A263" opacity="1.000000" stroke="none" 
	d="
M303.180542,244.067474 
	C309.815155,240.080124 316.995148,238.580582 324.655945,239.509018 
	C337.558075,241.072662 345.658203,247.334961 346.220764,260.213257 
	C347.203369,282.706696 346.228546,305.286682 345.998047,327.829620 
	C345.983215,329.278442 345.318542,330.720642 344.687439,332.781494 
	C344.100403,334.211670 343.782104,335.026215 343.463806,335.840790 
	C334.284363,349.297241 318.303864,352.238525 303.498383,342.722748 
	C302.157257,341.495605 301.277191,340.657410 300.397125,339.819214 
	C299.532135,338.322479 298.667175,336.825775 297.514526,334.826843 
	C296.991638,333.814606 296.756439,333.304535 296.521240,332.794464 
	C295.743988,326.878998 294.413818,320.974457 294.296478,315.045929 
	C293.983307,299.222198 294.156281,283.388092 294.208160,267.558350 
	C294.231445,260.455444 295.368500,253.619492 300.200897,247.276321 
	C301.461060,245.899109 302.320801,244.983292 303.180542,244.067474 
M315.312195,276.529816 
	C315.312164,277.362122 315.307678,278.194489 315.312714,279.026764 
	C315.399445,293.336884 315.406708,307.648315 315.640381,321.956055 
	C315.689484,324.964691 316.380127,328.218811 320.503479,328.257324 
	C324.750916,328.296997 325.140350,325.022827 325.200745,321.977142 
	C325.424988,310.666138 325.554169,299.351990 325.580994,288.038727 
	C325.599518,280.221466 325.450806,272.402100 325.251801,264.586884 
	C325.180084,261.771576 324.430634,259.110382 320.860626,259.060791 
	C317.239899,259.010406 315.948822,261.511719 315.705139,264.588928 
	C315.416962,268.228058 315.430023,271.891052 315.312195,276.529816 
z"/>
<path fill="#53A163" opacity="1.000000" stroke="none" 
	d="
M488.998688,442.000000 
	C489.437042,438.421173 490.237030,434.844116 490.254974,431.263184 
	C490.370178,408.279449 490.313934,385.294861 490.314026,362.310547 
	C490.314026,360.531921 490.314026,358.753326 490.314026,356.703247 
	C497.470093,356.703247 504.046722,356.703247 510.819397,356.703247 
	C510.935486,358.080170 511.113586,359.209137 511.113678,360.338104 
	C511.115387,385.820618 511.139679,411.303253 511.059906,436.785583 
	C511.033020,445.368134 509.104340,453.312439 501.801880,459.663330 
	C500.465637,460.649475 499.601776,461.261871 498.737915,461.874268 
	C489.916168,464.911865 481.090515,465.287018 471.677979,461.602966 
	C469.429565,460.110291 467.762482,458.927917 466.095367,457.745575 
	C461.374634,451.747192 459.274902,444.770050 459.233643,437.299133 
	C459.089203,411.149475 459.152100,384.998718 459.153534,358.848358 
	C459.153564,358.221405 459.356689,357.594482 459.509399,356.711334 
	C466.232635,356.711334 472.819885,356.711334 480.006378,356.711334 
	C480.006378,358.644073 480.006287,360.412750 480.006348,362.181458 
	C480.007385,386.000092 479.880341,409.820190 480.150574,433.635773 
	C480.190155,437.123932 482.120605,440.590637 483.795166,444.309631 
	C485.942352,443.701324 487.470520,442.850677 488.998688,442.000000 
z"/>
<path fill="#52A162" opacity="1.000000" stroke="none" 
	d="
M376.000977,446.217285 
	C374.601654,446.169525 373.202301,446.121765 371.148499,446.117004 
	C370.138885,446.336639 370.033020,446.609924 370.176453,446.979797 
	C369.684326,452.104797 369.192169,457.229767 368.658081,462.791260 
	C362.020813,462.791260 355.325378,462.791260 348.019318,462.791260 
	C351.425629,427.539642 354.825653,392.353210 358.296906,356.429291 
	C366.166107,356.429291 373.927155,356.429291 381.688202,356.429291 
	C394.568634,356.429291 394.592590,356.427002 395.755524,368.649017 
	C398.686859,399.455841 401.595642,430.264862 404.500946,461.074188 
	C404.545349,461.545105 404.429626,462.031158 404.358246,462.865906 
	C397.788544,462.865906 391.258911,462.865906 384.428802,462.865906 
	C383.937988,457.713776 383.467865,452.778717 382.917542,447.173218 
	C382.656433,446.148621 382.386292,446.056671 382.026886,446.226990 
	C381.267853,446.175476 380.508789,446.123962 379.003052,446.071808 
	C377.504547,446.119843 376.752747,446.168579 376.000977,446.217285 
M377.991821,390.428162 
	C377.527954,385.496307 377.064117,380.564484 376.600250,375.632629 
	C376.218201,375.655762 375.836121,375.678894 375.454041,375.701996 
	C374.189636,393.320129 372.925232,410.938263 371.645264,428.773224 
	C375.141998,428.773224 377.892578,428.773224 381.299805,428.773224 
	C380.193115,416.105957 379.111725,403.728119 377.991821,390.428162 
z"/>
<path fill="#52A163" opacity="1.000000" stroke="none" 
	d="
M298.143127,107.565918 
	C291.821381,97.538643 292.731903,86.444801 293.072784,75.131363 
	C300.294525,75.131363 307.194336,75.131363 314.358734,75.131363 
	C314.774323,80.884346 315.186737,86.593658 315.897186,93.010422 
	C318.158600,96.341606 320.559967,96.797157 323.382111,95.169632 
	C324.005890,94.369370 324.629669,93.569107 325.486877,92.236496 
	C325.762817,91.136421 325.805267,90.568687 325.847748,90.000961 
	C325.796844,84.534393 325.745941,79.067833 325.427246,72.915901 
	C324.124420,70.771927 323.089447,69.313309 322.054443,67.854691 
	C319.969086,67.030602 317.883728,66.206512 315.374298,65.214828 
	C315.374298,59.706234 315.374298,53.654377 315.374298,47.620720 
	C325.476135,45.038029 327.169708,42.710537 326.052856,32.080105 
	C323.086029,26.346554 320.444916,25.961372 317.094421,30.000315 
	C316.442871,33.027416 315.791290,36.054516 315.042297,39.534248 
	C308.231476,39.534248 301.074585,39.534248 293.443390,39.534248 
	C292.818298,31.090578 293.894409,23.145044 299.292236,15.590294 
	C300.167999,14.553712 300.675323,13.971285 301.182648,13.388856 
	C309.613800,7.234786 319.239258,6.896347 328.927551,8.347604 
	C339.619843,9.949254 346.703308,17.608482 347.847015,28.626394 
	C348.408264,34.032978 347.826660,39.558193 347.542053,45.665833 
	C347.235443,46.867695 347.149078,47.433449 347.062714,47.999195 
	C346.125763,49.481926 345.188812,50.964664 343.835205,52.880890 
	C342.054718,54.329868 340.690826,55.345367 339.145721,56.495800 
	C340.606049,57.413094 341.814545,58.172203 343.023041,58.931313 
	C344.754364,63.311588 347.676697,67.616898 347.958160,72.088432 
	C348.473969,80.283218 348.056152,88.668587 346.852936,96.800690 
	C345.766876,104.140839 341.391876,109.916344 333.775085,113.486511 
	C332.367523,114.140823 331.537994,114.501358 330.708496,114.861893 
	C320.676605,116.503250 310.778839,117.151100 301.328064,110.558189 
	C299.949036,109.292648 299.046082,108.429283 298.143127,107.565918 
z"/>
<path fill="#53A263" opacity="1.000000" stroke="none" 
	d="
M321.793915,408.998199 
	C323.485931,392.108490 325.175781,375.218536 326.880951,358.330139 
	C326.929626,357.848328 327.141510,357.382996 327.355774,356.636658 
	C333.735199,356.636658 340.141724,356.636658 347.257355,356.636658 
	C346.391022,364.258392 345.608032,371.633514 344.706116,378.994080 
	C341.447998,405.584320 338.102936,432.164093 334.928711,458.764252 
	C334.550568,461.933105 333.776245,463.443787 330.157104,463.318817 
	C322.019928,463.037872 313.866394,463.230713 304.945953,463.230713 
	C300.561523,427.704010 296.196533,392.335083 291.789001,356.621246 
	C298.815399,356.621246 305.240814,356.621246 312.205658,356.621246 
	C314.111420,373.851868 316.009186,391.009979 317.962402,409.007660 
	C318.429871,413.724884 318.841797,417.602539 319.253754,421.480225 
	C319.729736,421.534576 320.205750,421.588928 320.681732,421.643280 
	C321.052460,417.428253 321.423187,413.213226 321.793915,408.998199 
z"/>
<path fill="#52A162" opacity="1.000000" stroke="none" 
	d="
M306.014191,125.038635 
	C312.236298,124.593803 318.523193,123.369865 324.665863,123.880554 
	C334.731384,124.717384 340.872772,130.939529 343.110504,140.730530 
	C344.099884,145.059631 344.524750,149.517746 345.355591,154.884262 
	C338.391113,154.884262 332.157593,154.884262 325.065399,154.854340 
	C323.777069,152.397156 323.215179,149.984192 322.950775,147.539078 
	C322.607422,144.364258 320.929901,142.186249 317.878082,143.140472 
	C316.120819,143.689926 314.139252,146.156326 313.839874,148.014618 
	C313.522369,149.985489 314.605103,152.623627 315.917572,154.319122 
	C318.303345,157.401062 321.311676,160.001038 324.060211,162.802155 
	C325.116089,163.895508 326.171967,164.988876 327.675110,166.507141 
	C329.658142,168.330856 331.193848,169.729660 332.729584,171.128464 
	C333.808197,172.358154 334.886810,173.587845 336.369385,175.293060 
	C337.812531,176.945084 338.851776,178.121582 339.890991,179.298080 
	C345.695679,188.528137 346.016296,198.741486 344.829773,209.064697 
	C342.856812,226.230423 331.984222,234.251343 314.666260,231.591995 
	C312.061035,231.191940 309.517426,230.390594 306.318726,229.470001 
	C303.502625,227.662827 301.313141,226.160553 299.123627,224.658279 
	C292.127411,214.498062 292.855316,203.012024 293.175018,191.272888 
	C300.031281,191.272888 306.628571,191.272888 313.651886,191.272888 
	C313.976929,196.847504 314.310272,202.563950 314.901489,208.998810 
	C316.964111,210.290665 318.768829,210.864090 320.573547,211.437531 
	C321.731873,210.011749 323.702515,208.694351 323.909698,207.141647 
	C324.873535,199.918732 323.076630,193.403351 317.659912,188.171249 
	C315.642883,186.222977 313.686218,184.212234 311.275085,181.806885 
	C309.910309,180.557800 308.972443,179.731781 308.034576,178.905762 
	C305.886536,176.603500 303.700134,174.335663 301.596802,171.993240 
	C290.282440,159.392532 289.939026,140.768005 301.237915,128.377686 
	C303.137390,126.991547 304.575806,126.015091 306.014191,125.038635 
z"/>
<path fill="#52A162" opacity="1.000000" stroke="none" 
	d="
M461.171265,124.061897 
	C475.142334,124.061897 489.113403,124.061897 503.465332,124.061897 
	C503.465332,130.911911 503.465332,137.482895 503.465332,144.682877 
	C496.888428,144.682877 490.172180,144.682877 483.157928,144.682877 
	C483.157928,151.858307 483.157928,158.413162 483.157928,165.460907 
	C489.633026,165.460907 495.915375,165.460907 502.564270,165.460907 
	C502.564270,172.329361 502.564270,178.718735 502.564270,185.713318 
	C496.157104,185.713318 489.762390,185.713318 483.115295,185.713318 
	C483.115295,194.041733 483.115295,201.772232 483.115295,210.010376 
	C490.357269,210.010376 497.431274,210.010376 504.779602,210.010376 
	C504.779602,217.096558 504.779602,223.681580 504.779602,230.970993 
	C490.551727,230.970993 476.304657,230.970993 461.544495,230.550262 
	C460.963745,228.753448 460.896149,227.377380 460.828552,226.001297 
	C460.874329,193.976562 460.920074,161.951843 460.965393,129.055298 
	C461.033722,126.809616 461.102509,125.435753 461.171265,124.061897 
z"/>
<path fill="#53A163" opacity="1.000000" stroke="none" 
	d="
M541.319397,418.959045 
	C541.319397,426.601990 541.319397,434.244904 541.319397,442.598816 
	C548.646973,442.598816 555.883911,442.598816 563.367188,442.598816 
	C563.367188,449.735321 563.367188,456.159760 563.367188,462.907410 
	C548.733765,462.907410 534.330017,462.907410 519.601807,462.907410 
	C519.601807,427.556793 519.601807,392.322510 519.601807,356.755829 
	C533.633545,356.755829 547.539795,356.755829 561.773071,356.755829 
	C561.773071,363.417175 561.773071,369.971649 561.773071,376.958282 
	C555.084839,376.958282 548.487793,376.958282 541.132812,376.958282 
	C541.132812,383.610107 541.132812,389.862213 541.188477,396.787537 
	C541.244141,397.460754 541.542969,397.764740 541.542969,397.764740 
	C541.542969,397.764740 541.967346,397.724426 541.967346,397.724426 
	C548.213989,397.724426 554.460632,397.724426 560.947998,397.724426 
	C560.947998,404.716888 560.947998,410.961243 560.947998,418.082123 
	C554.980591,418.082123 548.934570,418.082123 542.217407,418.161621 
	C541.228149,418.403839 541.152588,418.643158 541.319397,418.959045 
z"/>
<path fill="#52A163" opacity="1.000000" stroke="none" 
	d="
M511.902832,227.001266 
	C511.968445,194.860123 512.034302,162.718964 512.099243,130.577820 
	C512.103210,128.611374 512.099731,126.644928 512.099731,124.379028 
	C526.434692,124.379028 540.341431,124.379028 554.617188,124.379028 
	C554.617188,130.927902 554.617188,137.506638 554.617188,144.660919 
	C548.073303,144.660919 541.341858,144.660919 534.303284,144.660919 
	C534.303284,151.801941 534.303284,158.382187 534.303284,165.541595 
	C540.697083,165.541595 547.106384,165.541595 553.762146,165.541595 
	C553.762146,172.508865 553.762146,178.901382 553.762146,185.688812 
	C547.217102,185.688812 540.942017,185.688812 534.326355,185.688812 
	C534.326355,193.818130 534.326355,201.564621 534.326355,209.835327 
	C541.264526,209.835327 548.333862,209.835327 555.807068,209.835327 
	C555.807068,217.033798 555.807068,223.725372 555.807068,230.665680 
	C541.320679,230.665680 526.892761,230.665680 512.264160,229.960754 
	C512.009949,228.504303 511.956390,227.752792 511.902832,227.001266 
z"/>
<path fill="#51A162" opacity="1.000000" stroke="none" 
	d="
M377.982178,277.847687 
	C384.083618,277.847687 390.185059,277.847687 396.709656,277.847687 
	C396.709656,284.928070 396.709656,291.567078 396.709656,298.835968 
	C390.725494,298.835968 384.818665,298.835968 378.193970,298.937744 
	C377.392487,299.349792 377.308899,299.660034 377.225311,299.970306 
	C377.225311,315.432587 377.225311,330.894897 377.225311,346.718658 
	C369.913635,346.718658 363.050690,346.718658 355.929626,346.718658 
	C355.929626,311.313995 355.929626,276.092621 355.929626,240.542114 
	C369.869354,240.542114 383.612152,240.542114 397.799103,240.542114 
	C397.799103,247.201508 397.799103,253.875778 397.799103,261.124603 
	C391.449677,261.124603 385.168243,261.124603 378.211670,261.180786 
	C377.214569,261.396667 377.128296,261.639954 377.277679,261.966858 
	C377.210724,266.678680 377.143768,271.390472 377.120789,276.808594 
	C377.164764,277.514862 377.492523,277.880066 377.492523,277.880066 
	C377.492523,277.880066 377.982178,277.847687 377.982178,277.847687 
z"/>
<path fill="#51A162" opacity="1.000000" stroke="none" 
	d="
M577.131348,230.973083 
	C572.508850,231.692581 572.653320,229.048248 572.659302,226.169052 
	C572.711182,201.356735 572.686768,176.544250 572.685059,151.731827 
	C572.684937,149.604355 572.685059,147.476898 572.685059,144.914398 
	C568.273010,144.914398 564.504883,144.914398 560.345581,144.914398 
	C560.345581,137.931244 560.345581,131.369888 560.345581,124.432541 
	C575.439453,124.432541 590.673645,124.432541 606.341675,124.432541 
	C606.341675,130.841171 606.341675,137.393173 606.341675,144.478561 
	C602.579346,144.478561 598.671143,144.478561 594.295166,144.478561 
	C594.295166,173.388733 594.295166,201.781586 594.295166,230.973389 
	C588.447937,230.973389 583.032410,230.973389 577.131348,230.973083 
z"/>
<path fill="#51A162" opacity="1.000000" stroke="none" 
	d="
M383.200226,145.974335 
	C383.142212,172.134476 383.083984,198.294632 383.026794,224.454773 
	C383.022491,226.424759 383.026215,228.394775 383.026215,230.667114 
	C375.929626,230.667114 369.192810,230.667114 361.867371,230.667114 
	C361.867371,202.205948 361.867371,173.818222 361.867371,144.595566 
	C357.362671,144.595566 353.428589,144.595566 349.236084,143.922607 
	C348.928345,142.500107 348.879059,141.750549 348.829773,141.001007 
	C348.875610,137.304520 348.921448,133.608017 348.967163,129.059204 
	C348.928802,127.138382 348.890533,126.069893 348.852295,125.001389 
	C349.730896,124.690186 350.608521,124.111153 351.488281,124.107811 
	C365.468842,124.054726 379.449677,124.071243 393.430420,124.092735 
	C394.057739,124.093697 394.684723,124.292679 395.557098,124.441170 
	C395.557098,131.027222 395.557098,137.459305 395.557098,144.833008 
	C392.042938,144.833008 388.472595,144.833008 384.183807,144.925537 
	C383.376953,145.336823 383.288605,145.655579 383.200226,145.974335 
z"/>
<path fill="#55A264" opacity="1.000000" stroke="none" 
	d="
M432.643677,364.115173 
	C432.643463,391.226501 432.643463,417.856079 432.643463,444.938293 
	C440.016357,444.938293 446.959076,444.938293 454.267700,444.938293 
	C454.267700,451.117920 454.267700,456.850250 454.267700,462.912781 
	C440.052368,462.912781 425.959351,462.912781 411.461029,462.912781 
	C411.461029,427.740540 411.461029,392.507355 411.461029,356.843689 
	C418.179901,356.843689 425.052826,356.843689 432.643860,356.843689 
	C432.643860,359.106079 432.643860,361.369751 432.643677,364.115173 
z"/>
<path fill="#FEFEFE" opacity="1.000000" stroke="none" 
	d="
M324.099274,162.421021 
	C321.311676,160.001038 318.303345,157.401062 315.917572,154.319122 
	C314.605103,152.623627 313.522369,149.985489 313.839874,148.014618 
	C314.139252,146.156326 316.120819,143.689926 317.878082,143.140472 
	C320.929901,142.186249 322.607422,144.364258 322.950775,147.539078 
	C323.215179,149.984192 323.777069,152.397156 324.603363,154.938782 
	C324.712799,157.382065 324.425568,159.710983 324.099274,162.421021 
z"/>
<path fill="#FEFEFE" opacity="1.000000" stroke="none" 
	d="
M321.426697,408.998779 
	C321.423187,413.213226 321.052460,417.428253 320.681732,421.643280 
	C320.205750,421.588928 319.729736,421.534576 319.253754,421.480225 
	C318.841797,417.602539 318.429871,413.724884 318.070007,409.423340 
	C319.101227,408.999451 320.080353,408.999390 321.426697,408.998779 
z"/>
<path fill="#FEFEFE" opacity="1.000000" stroke="none" 
	d="
M317.491669,30.000282 
	C320.444916,25.961372 323.086029,26.346554 325.912842,31.644657 
	C323.227020,31.333740 320.557983,30.666996 317.491669,30.000282 
z"/>
<path fill="#FEFEFE" opacity="1.000000" stroke="none" 
	d="
M333.040283,170.913055 
	C331.193848,169.729660 329.658142,168.330856 327.966858,166.663544 
	C329.212860,166.154938 331.477600,165.287994 331.847290,165.797150 
	C332.796997,167.104980 332.905975,169.023331 333.040283,170.913055 
z"/>
<path fill="#FEFEFE" opacity="1.000000" stroke="none" 
	d="
M630.106323,183.974167 
	C632.694702,186.162659 635.245972,188.762787 637.874023,191.689728 
	C633.321960,191.540390 630.723328,188.967346 630.106323,183.974167 
z"/>
<path fill="#FEFEFE" opacity="1.000000" stroke="none" 
	d="
M299.092529,225.053894 
	C301.313141,226.160553 303.502625,227.662827 305.931030,229.382645 
	C302.887970,231.219727 300.381104,229.755951 299.092529,225.053894 
z"/>
<path fill="#FEFEFE" opacity="1.000000" stroke="none" 
	d="
M615.519653,130.980011 
	C615.054077,132.478439 614.200806,133.986694 613.135620,135.745941 
	C612.336670,135.039932 611.749512,134.082916 611.162415,133.125900 
	C612.485535,132.413879 613.808716,131.701859 615.519653,130.980011 
z"/>
<path fill="#FEFEFE" opacity="1.000000" stroke="none" 
	d="
M305.866272,124.737106 
	C304.575806,126.015091 303.137390,126.991547 301.386353,128.080856 
	C301.240387,125.233551 301.371948,122.230003 305.866272,124.737106 
z"/>
<path fill="#FEFEFE" opacity="1.000000" stroke="none" 
	d="
M343.061310,58.559937 
	C341.814545,58.172203 340.606049,57.413094 339.145721,56.495800 
	C340.690826,55.345367 342.054718,54.329868 343.719757,53.188393 
	C343.713806,54.771130 343.406677,56.479847 343.061310,58.559937 
z"/>
<path fill="#FEFEFE" opacity="1.000000" stroke="none" 
	d="
M323.020111,95.018951 
	C320.559967,96.797157 318.158600,96.341606 316.137268,93.358871 
	C318.272247,93.622681 320.465179,94.245476 323.020111,95.018951 
z"/>
<path fill="#FEFEFE" opacity="1.000000" stroke="none" 
	d="
M622.105103,175.989471 
	C623.395569,176.726364 624.648193,177.886703 626.044556,179.325745 
	C623.017944,181.443436 622.363281,180.936432 622.105103,175.989471 
z"/>
<path fill="#FEFEFE" opacity="1.000000" stroke="none" 
	d="
M466.069397,458.180176 
	C467.762482,458.927917 469.429565,460.110291 471.309235,461.572540 
	C469.129211,461.731720 465.725128,463.322571 466.069397,458.180176 
z"/>
<path fill="#FEFEFE" opacity="1.000000" stroke="none" 
	d="
M322.039307,68.252960 
	C323.089447,69.313309 324.124420,70.771927 325.171326,72.582802 
	C324.130219,71.507118 323.077209,70.079170 322.039307,68.252960 
z"/>
<path fill="#FEFEFE" opacity="1.000000" stroke="none" 
	d="
M320.247131,211.194855 
	C318.768829,210.864090 316.964111,210.290665 315.118317,209.358536 
	C316.691742,209.650635 318.306244,210.301407 320.247131,211.194855 
z"/>
<path fill="#FEFEFE" opacity="1.000000" stroke="none" 
	d="
M488.620789,442.000305 
	C487.470520,442.850677 485.942352,443.701324 484.180054,444.347900 
	C485.378235,443.429382 486.810577,442.714966 488.620789,442.000305 
z"/>
<path fill="#FEFEFE" opacity="1.000000" stroke="none" 
	d="
M460.478485,226.084686 
	C460.896149,227.377380 460.963745,228.753448 461.084595,230.540070 
	C457.831451,229.983231 458.616425,228.152390 460.478485,226.084686 
z"/>
<path fill="#FEFEFE" opacity="1.000000" stroke="none" 
	d="
M460.802185,124.097679 
	C461.102509,125.435753 461.033722,126.809616 460.896667,128.591095 
	C458.011200,127.595200 458.415405,125.929886 460.802185,124.097679 
z"/>
<path fill="#FEFEFE" opacity="1.000000" stroke="none" 
	d="
M348.522156,125.070160 
	C348.890533,126.069893 348.928802,127.138382 348.898499,128.602844 
	C348.617279,127.712173 348.404633,126.425552 348.522156,125.070160 
z"/>
<path fill="#FEFEFE" opacity="1.000000" stroke="none" 
	d="
M339.918091,178.889832 
	C338.851776,178.121582 337.812531,176.945084 336.622437,175.462387 
	C337.629395,176.264648 338.787262,177.373108 339.918091,178.889832 
z"/>
<path fill="#FEFEFE" opacity="1.000000" stroke="none" 
	d="
M300.090973,340.002747 
	C301.277191,340.657410 302.157257,341.495605 303.178467,342.607971 
	C301.594696,342.700317 298.918488,343.765808 300.090973,340.002747 
z"/>
<path fill="#FEFEFE" opacity="1.000000" stroke="none" 
	d="
M298.107788,107.957901 
	C299.046082,108.429283 299.949036,109.292648 300.992004,110.432785 
	C298.752563,111.955109 298.543762,111.794067 298.107788,107.957901 
z"/>
<path fill="#FEFEFE" opacity="1.000000" stroke="none" 
	d="
M343.833252,335.857605 
	C343.782104,335.026215 344.100403,334.211670 344.663635,333.180115 
	C344.673279,333.933563 344.437988,334.903992 343.833252,335.857605 
z"/>
<path fill="#FEFEFE" opacity="1.000000" stroke="none" 
	d="
M376.061157,446.527344 
	C376.752747,446.168579 377.504547,446.119843 378.627686,446.143646 
	C378.039795,446.423218 377.080566,446.630310 376.061157,446.527344 
z"/>
<path fill="#FEFEFE" opacity="1.000000" stroke="none" 
	d="
M499.065857,462.009888 
	C499.601776,461.261871 500.465637,460.649475 501.639709,459.951965 
	C501.933014,461.563263 502.182831,463.558929 499.065857,462.009888 
z"/>
<path fill="#FEFEFE" opacity="1.000000" stroke="none" 
	d="
M302.791199,244.054398 
	C302.320801,244.983292 301.461060,245.899109 300.316650,246.950836 
	C300.821960,246.071594 301.611908,245.056458 302.791199,244.054398 
z"/>
<path fill="#FEFEFE" opacity="1.000000" stroke="none" 
	d="
M511.578918,227.055603 
	C511.956390,227.752792 512.009949,228.504303 511.990112,229.627319 
	C511.696136,229.035843 511.475555,228.072906 511.578918,227.055603 
z"/>
<path fill="#FEFEFE" opacity="1.000000" stroke="none" 
	d="
M308.031799,179.289337 
	C308.972443,179.731781 309.910309,180.557800 310.971130,181.674561 
	C310.072388,181.201202 309.050720,180.437057 308.031799,179.289337 
z"/>
<path fill="#FEFEFE" opacity="1.000000" stroke="none" 
	d="
M348.511993,141.060211 
	C348.879059,141.750549 348.928345,142.500107 348.935516,143.624237 
	C348.660339,143.039017 348.427277,142.079208 348.511993,141.060211 
z"/>
<path fill="#FEFEFE" opacity="1.000000" stroke="none" 
	d="
M300.994873,13.091763 
	C300.675323,13.971285 300.167999,14.553712 299.400330,15.272103 
	C299.695709,14.536935 300.251434,13.665801 300.994873,13.091763 
z"/>
<path fill="#FEFEFE" opacity="1.000000" stroke="none" 
	d="
M331.035034,114.995827 
	C331.537994,114.501358 332.367523,114.140823 333.537567,113.713562 
	C333.039276,114.141136 332.200439,114.635452 331.035034,114.995827 
z"/>
<path fill="#FEFEFE" opacity="1.000000" stroke="none" 
	d="
M347.365601,47.957996 
	C347.149078,47.433449 347.235443,46.867695 347.524658,46.094349 
	C347.707794,46.563431 347.688110,47.240112 347.365601,47.957996 
z"/>
<path fill="#FEFEFE" opacity="1.000000" stroke="none" 
	d="
M325.548218,90.049606 
	C325.805267,90.568687 325.762817,91.136421 325.530579,91.922012 
	C325.310089,91.459335 325.279388,90.778793 325.548218,90.049606 
z"/>
<path fill="#FEFEFE" opacity="1.000000" stroke="none" 
	d="
M296.214355,332.950287 
	C296.756439,333.304535 296.991638,333.814606 297.283447,334.603027 
	C296.862518,334.289642 296.385010,333.697876 296.214355,332.950287 
z"/>
<path fill="#FEFEFE" opacity="1.000000" stroke="none" 
	d="
M446.000854,175.587555 
	C445.803314,175.356216 445.605865,174.853149 445.705505,174.289536 
	C446.002045,174.591263 446.001465,174.953537 446.000854,175.587555 
z"/>
<path fill="#FEFEFE" opacity="1.000000" stroke="none" 
	d="
M383.380310,145.860733 
	C383.288605,145.655579 383.376953,145.336823 383.730896,145.022491 
	C383.923401,145.310776 383.778015,145.550842 383.380310,145.860733 
z"/>
<path fill="#FEFEFE" opacity="1.000000" stroke="none" 
	d="
M382.117584,446.388245 
	C382.386292,446.056671 382.656433,446.148621 382.819946,446.740051 
	C382.563110,446.892181 382.365021,446.749573 382.117584,446.388245 
z"/>
<path fill="#FEFEFE" opacity="1.000000" stroke="none" 
	d="
M370.344879,446.894348 
	C370.033020,446.609924 370.138885,446.336639 370.733765,446.190155 
	C370.878174,446.461975 370.724792,446.658173 370.344879,446.894348 
z"/>
<path fill="#FEFEFE" opacity="1.000000" stroke="none" 
	d="
M541.456421,418.876343 
	C541.152588,418.643158 541.228149,418.403839 541.756348,418.260742 
	C541.887634,418.484467 541.763245,418.655579 541.456421,418.876343 
z"/>
<path fill="#FEFEFE" opacity="1.000000" stroke="none" 
	d="
M541.890442,397.582275 
	C541.967346,397.724426 541.542969,397.764740 541.542969,397.764740 
	C541.542969,397.764740 541.244141,397.460754 541.278687,397.250427 
	C541.516113,397.128326 541.682861,397.261658 541.890442,397.582275 
z"/>
<path fill="#FEFEFE" opacity="1.000000" stroke="none" 
	d="
M377.420166,261.888916 
	C377.128296,261.639954 377.214569,261.396667 377.748901,261.271362 
	C377.874054,261.510223 377.741180,261.678650 377.420166,261.888916 
z"/>
<path fill="#FEFEFE" opacity="1.000000" stroke="none" 
	d="
M377.898499,277.675476 
	C377.982178,277.847687 377.492523,277.880066 377.492523,277.880066 
	C377.492523,277.880066 377.164764,277.514862 377.195099,277.271362 
	C377.469299,277.127594 377.665741,277.286072 377.898499,277.675476 
z"/>
<path fill="#FEFEFE" opacity="1.000000" stroke="none" 
	d="
M377.398987,299.858398 
	C377.308899,299.660034 377.392487,299.349792 377.735016,299.042847 
	C377.922791,299.321289 377.782379,299.554718 377.398987,299.858398 
z"/>
<path fill="#F3F8F4" opacity="1.000000" stroke="none" 
	d="
M423.289734,153.026810 
	C423.289917,149.919022 423.289917,147.295914 423.289917,144.771332 
	C430.845215,142.790695 432.789703,144.137192 432.996765,151.206497 
	C433.049957,153.022446 433.085419,154.850067 432.947357,156.658447 
	C432.466400,162.957993 430.443604,164.407043 423.289581,163.194656 
	C423.289581,160.040924 423.289581,156.776215 423.289734,153.026810 
z"/>
<path fill="#F8FBF8" opacity="1.000000" stroke="none" 
	d="
M315.312317,276.036743 
	C315.430023,271.891052 315.416962,268.228058 315.705139,264.588928 
	C315.948822,261.511719 317.239899,259.010406 320.860626,259.060791 
	C324.430634,259.110382 325.180084,261.771576 325.251801,264.586884 
	C325.450806,272.402100 325.599518,280.221466 325.580994,288.038727 
	C325.554169,299.351990 325.424988,310.666138 325.200745,321.977142 
	C325.140350,325.022827 324.750916,328.296997 320.503479,328.257324 
	C316.380127,328.218811 315.689484,324.964691 315.640381,321.956055 
	C315.406708,307.648315 315.399445,293.336884 315.312714,279.026764 
	C315.307678,278.194489 315.312164,277.362122 315.312317,276.036743 
z"/>
<path fill="#F7FAF7" opacity="1.000000" stroke="none" 
	d="
M378.011047,390.889221 
	C379.111725,403.728119 380.193115,416.105957 381.299805,428.773224 
	C377.892578,428.773224 375.141998,428.773224 371.645264,428.773224 
	C372.925232,410.938263 374.189636,393.320129 375.454041,375.701996 
	C375.836121,375.678894 376.218201,375.655762 376.600250,375.632629 
	C377.064117,380.564484 377.527954,385.496307 378.011047,390.889221 
z"/>
</svg>